#!OML:ASF F:\VICON\USERDATA\INSTALL\rory3\rory3.ASF
:FULLY-SPECIFIED
:DEGREES
375
root 0.346123 24.4286 3.76339 -176.89 -13.6793 171.047
lowerback 26.1016 -1.94174 -3.51355
upperback 5.55856 -4.90535 -2.5712
thorax -8.2407 -2.77132 0.824068
lowerneck -11.5821 -3.1941 -8.36532
upperneck 2.43922 -3.72637 9.1046
head 2.93327 -1.64133 3.90896
rclavicle -8.32411e-016 3.78933e-014
rhumerus -0.607748 -7.48837 -71.8359
rradius 71.0055
rwrist -3.13271
rhand 20.8347 7.5147
rfingers 7.12502
rthumb 45.3119 -15.8609
lclavicle -8.32411e-016 3.78933e-014
lhumerus 6.12009 -11.8271 88.8916
lradius 70.3027
lwrist 19.277
lhand -28.2302 22.9422
lfingers 7.12502
lthumb -1.60825 52.9158
rfemur -67.0268 9.19643 5.25342
rtibia 98.0883
rfoot -26.74 -10.7248
rtoes -11.7799
lfemur -22.4497 5.58211 -34.7488
ltibia 30.8694
lfoot 12.8742 -4.68907
ltoes -11.73
376
root 0.359246 24.4441 3.74926 -176.791 -13.9902 171.008
lowerback 26.0318 -1.98464 -3.5139
upperback 5.60679 -4.9575 -2.56912
thorax -8.14969 -2.80015 0.837113
lowerneck -11.5751 -3.32222 -8.51748
upperneck 2.61241 -3.90342 9.40873
head 3.01066 -1.71714 4.01606
rclavicle -4.61802e-014 5.98839e-015
rhumerus -0.103986 -8.43199 -71.702
rradius 71.696
rwrist -4.79203
rhand 24.9468 6.74966
rfingers 7.12502
rthumb 49.1123 -14.927
lclavicle -4.61802e-014 5.98839e-015
lhumerus 6.22683 -12.038 88.8501
lradius 70.1689
lwrist 19.2678
lhand -28.3204 22.7825
lfingers 7.12502
lthumb -1.69538 52.7555
rfemur -66.8651 9.04694 5.15098
rtibia 97.9774
rfoot -26.9864 -10.3405
rtoes -11.4876
lfemur -22.444 5.36617 -34.7096
ltibia 30.76
lfoot 13.1398 -4.79757
ltoes -11.6403
377
root 0.372349 24.4537 3.73537 -176.664 -14.2394 171.055
lowerback 25.9891 -2.03447 -3.45729
upperback 5.57721 -4.9914 -2.54778
thorax -8.16231 -2.81157 0.837267
lowerneck -11.4616 -3.39975 -8.51345
upperneck 2.67718 -4.02351 9.50741
head 3.02544 -1.77386 4.03877
rclavicle -3.88748e-014 3.90363e-014
rhumerus 0.193413 -9.32048 -71.5814
rradius 72.6336
rwrist -6.58269
rhand 27.807 6.31283
rfingers 7.12502
rthumb 51.7249 -13.9548
lclavicle -3.88748e-014 3.90363e-014
lhumerus 6.35714 -12.1823 88.8557
lradius 69.8966
lwrist 19.2141
lhand -28.2843 22.7089
lfingers 7.12502
lthumb -1.6605 52.6822
rfemur -66.7988 8.96945 5.14336
rtibia 97.8848
rfoot -27.2114 -9.98941
rtoes -11.1961
lfemur -22.5067 5.16757 -34.586
ltibia 30.6329
lfoot 13.4358 -4.72821
ltoes -11.0094
378
root 0.38592 24.461 3.72209 -176.599 -14.375 170.989
lowerback 26.0064 -2.01598 -3.56564
upperback 5.59823 -4.99998 -2.54288
thorax -8.13827 -2.81587 0.906914
lowerneck -11.4158 -3.44854 -8.43093
upperneck 2.57931 -4.09477 9.43405
head 2.99158 -1.8135 3.99819
rclavicle 2.32081e-014 -7.42958e-015
rhumerus 0.625431 -10.164 -71.4615
rradius 73.5722
rwrist -8.36043
rhand 28.4413 7.0545
rfingers 7.12502
rthumb 52.3002 -12.8711
lclavicle 2.32081e-014 -7.42958e-015
lhumerus 6.45345 -12.3263 88.8336
lradius 69.7596
lwrist 19.2117
lhand -28.3154 22.8382
lfingers 7.12502
lthumb -1.69049 52.8113
rfemur -66.7094 8.97099 5.03535
rtibia 97.8203
rfoot -27.3288 -9.76179
rtoes -11.7122
lfemur -22.4681 5.0887 -34.5902
ltibia 30.4743
lfoot 13.7166 -4.78482
ltoes -11.1157
379
root 0.401658 24.4691 3.70676 -176.545 -14.5419 170.934
lowerback 25.9973 -1.99832 -3.68487
upperback 5.64388 -5.01225 -2.52903
thorax -8.07152 -2.82449 0.991174
lowerneck -11.3891 -3.48907 -8.34833
upperneck 2.4596 -4.15489 9.3761
head 2.95353 -1.84739 3.9631
rclavicle 7.35503e-015 -2.55935e-014
rhumerus 1.17217 -10.8052 -71.3749
rradius 74.6702
rwrist -10.4005
rhand 31.1202 6.21326
rfingers 7.12502
rthumb 54.7111 -12.1323
lclavicle 7.35503e-015 -2.55935e-014
lhumerus 6.50282 -12.5004 88.7784
lradius 69.732
lwrist 19.2132
lhand -28.2969 22.9777
lfingers 7.12502
lthumb -1.67263 52.9509
rfemur -66.5457 8.94106 5.00316
rtibia 97.7182
rfoot -27.4443 -9.82272
rtoes -12.532
lfemur -22.4264 4.91942 -34.566
ltibia 30.3572
lfoot 13.9548 -4.87015
ltoes -11.7627
380
root 0.416402 24.479 3.69138 -176.438 -14.755 170.866
lowerback 25.9972 -2.01612 -3.73358
upperback 5.63469 -5.04809 -2.55282
thorax -8.07895 -2.8392 1.00408
lowerneck -11.3305 -3.57183 -8.44335
upperneck 2.42039 -4.26872 9.56593
head 2.94986 -1.90047 4.03045
rclavicle 5.35476e-015 -2.48481e-015
rhumerus 1.69656 -11.5009 -71.2867
rradius 75.7482
rwrist -11.9785
rhand 32.2875 5.24078
rfingers 7.12502
rthumb 55.7509 -12.3405
lclavicle 5.35476e-015 -2.48481e-015
lhumerus 6.5033 -12.7273 88.6745
lradius 69.6909
lwrist 19.2707
lhand -28.3471 23.1581
lfingers 7.12502
lthumb -1.72119 53.1309
rfemur -66.3955 8.77897 4.97822
rtibia 97.5843
rfoot -27.6298 -9.85587
rtoes -12.6481
lfemur -22.4137 4.67964 -34.5592
ltibia 30.2364
lfoot 14.2355 -4.92223
ltoes -12.0025
381
root 0.428725 24.4898 3.67946 -176.296 -14.9252 170.808
lowerback 25.9746 -2.04589 -3.74
upperback 5.61549 -5.08683 -2.59305
thorax -8.09108 -2.85514 0.974925
lowerneck -11.2181 -3.58204 -8.60855
upperneck 2.17135 -4.28045 9.85382
head 2.86975 -1.90638 4.1479
rclavicle 4.81804e-014 -1.33186e-014
rhumerus 2.25455 -12.0726 -71.1918
rradius 76.8613
rwrist -13.5563
rhand 30.8129 5.95633
rfingers 7.12502
rthumb 54.4363 -12.5824
lclavicle 4.81804e-014 -1.33186e-014
lhumerus 6.52915 -12.8998 88.5586
lradius 69.6053
lwrist 19.2853
lhand -28.3712 23.3518
lfingers 7.12502
lthumb -1.74446 53.3244
rfemur -66.2835 8.64546 4.91566
rtibia 97.4162
rfoot -27.9389 -9.6655
rtoes -12.2064
lfemur -22.4389 4.43277 -34.5508
ltibia 30.0779
lfoot 14.4699 -4.88526
ltoes -12.0376
382
root 0.439141 24.5042 3.66837 -176.189 -15.2089 170.879
lowerback 25.9389 -2.15834 -3.60682
upperback 5.61229 -5.18507 -2.57119
thorax -8.08206 -2.90125 0.952112
lowerneck -11.0218 -3.51338 -8.62049
upperneck 1.78358 -4.18958 9.89101
head 2.71496 -1.87242 4.17069
rclavicle 3.9583e-014 -2.33572e-015
rhumerus 2.8916 -12.4517 -71.0768
rradius 78.0531
rwrist -15.2185
rhand 27.8574 6.38856
rfingers 7.12502
rthumb 51.7707 -13.8523
lclavicle 3.9583e-014 -2.33572e-015
lhumerus 6.50833 -12.9614 88.5031
lradius 69.5615
lwrist 19.2085
lhand -28.3992 23.3855
lfingers 7.12502
lthumb -1.77148 53.3579
rfemur -66.0928 8.45023 4.99828
rtibia 97.2104
rfoot -28.2276 -9.5572
rtoes -12.4267
lfemur -22.4053 4.02582 -34.387
ltibia 29.8581
lfoot 14.7466 -4.66687
ltoes -11.6057
383
root 0.449862 24.5191 3.65585 -176.078 -15.5238 170.837
lowerback 25.9482 -2.27129 -3.58517
upperback 5.59943 -5.31934 -2.55791
thorax -8.09735 -2.96218 0.997436
lowerneck -11.0831 -3.67375 -8.75529
upperneck 2.12644 -4.3973 9.98917
head 2.85257 -1.96426 4.20768
rclavicle 2.80038e-014 -1.98785e-014
rhumerus 3.58803 -12.8429 -71.075
rradius 79.2577
rwrist -16.7041
rhand 23.2368 7.60944
rfingers 7.12502
rthumb 47.5376 -14.8162
lclavicle 2.80038e-014 -1.98785e-014
lhumerus 6.42019 -12.9566 88.4834
lradius 69.5891
lwrist 19.1354
lhand -28.3586 23.29
lfingers 7.12502
lthumb -1.73222 53.2627
rfemur -65.8831 8.16288 4.96375
rtibia 97.0237
rfoot -28.4878 -9.4151
rtoes -12.9807
lfemur -22.3029 3.6899 -34.3626
ltibia 29.5958
lfoot 14.9931 -4.5746
ltoes -11.4428
